<svg viewBox="0 0 1000 200" width="1000" height="200" xmlns="http://www.w3.org/2000/svg" role="img">
<title>PHPRegex Toolkit</title>
<style>.paper{fill:#F8F7F2}.ink-f{fill:#182B45}.ink-s{stroke:#182B45;fill:none}.amber-f{fill:#A84A08}</style>
<rect x="10" y="10" width="980" height="180" class="paper" stroke="#64748B" stroke-width="2.5"/>
<g transform="translate(158.79248046875 100) scale(0.52)"><g fill="none" class="ink-s" stroke-width="27" stroke-linecap="round" stroke-linejoin="round"><path d="M-112-120H-168V120H-112"/><path d="M112-120H168V120H112"/></g><g transform="translate(0 14)"><path d="M0-78L-64 58M0-78L64 58" fill="none" class="ink-s" stroke-width="22" stroke-linecap="round"/><circle cx="0" cy="-78" r="38" class="amber-f"/><circle cx="-64" cy="58" r="30" class="amber-f"/><circle cx="64" cy="58" r="30" class="amber-f"/></g></g>
<g transform="translate(295.17248046875 128.374023)"><path d="M3.046875 0.0V-56.748046875H27.1552734375Q33.9345703125 -56.748046875 38.8857421875 -54.32958984375Q43.8369140625 -51.9111328125 46.52197265625 -47.47412109375Q49.20703125 -43.037109375 49.20703125 -36.943359375Q49.20703125 -30.8876953125 46.52197265625 -26.431640625Q43.8369140625 -21.9755859375 38.8857421875 -19.55712890625Q33.9345703125 -17.138671875 27.1552734375 -17.138671875H18.890625V0.0ZM18.890625 -30.1640625H25.974609375Q29.5546875 -30.1640625 31.6494140625 -31.9921875Q33.744140625 -33.8203125 33.744140625 -36.943359375Q33.744140625 -40.06640625 31.6494140625 -41.89453125Q29.5546875 -43.72265625 25.974609375 -43.72265625H18.890625ZM53.091796875 0.0V-56.748046875H68.935546875V-35.5341796875H87.826171875V-56.748046875H103.669921875V0.0H87.826171875V-22.1279296875H68.935546875V0.0ZM109.2685546875 0.0V-56.748046875H133.376953125Q140.15625 -56.748046875 145.107421875 -54.32958984375Q150.05859375 -51.9111328125 152.74365234375 -47.47412109375Q155.4287109375 -43.037109375 155.4287109375 -36.943359375Q155.4287109375 -30.8876953125 152.74365234375 -26.431640625Q150.05859375 -21.9755859375 145.107421875 -19.55712890625Q140.15625 -17.138671875 133.376953125 -17.138671875H125.1123046875V0.0ZM125.1123046875 -30.1640625H132.1962890625Q135.7763671875 -30.1640625 137.87109375 -31.9921875Q139.9658203125 -33.8203125 139.9658203125 -36.943359375Q139.9658203125 -40.06640625 137.87109375 -41.89453125Q135.7763671875 -43.72265625 132.1962890625 -43.72265625H125.1123046875Z" class="ink-f"/><path transform="translate(156.2666015625 0)" d="M4.2275390625 0.0V-56.748046875H26.9267578125Q33.3251953125 -56.748046875 37.99072265625 -54.48193359375Q42.65625 -52.2158203125 45.18896484375 -48.0263671875Q47.7216796875 -43.8369140625 47.7216796875 -38.1240234375Q47.7216796875 -32.4873046875 45.03662109375 -28.3740234375Q42.3515625 -24.2607421875 37.5908203125 -22.0517578125L48.978515625 0.0H36.41015625L26.35546875 -19.8427734375Q26.3173828125 -19.8427734375 26.2412109375 -19.8427734375H15.9580078125V0.0ZM15.9580078125 -29.25H26.2412109375Q30.8876953125 -29.25 33.57275390625 -31.66845703125Q36.2578125 -34.0869140625 36.2578125 -38.1240234375Q36.2578125 -42.19921875 33.5537109375 -44.5986328125Q30.849609375 -46.998046875 26.203125 -46.998046875H15.9580078125ZM72.5537109375 0.9140625Q66.4599609375 0.9140625 61.94677734375 -1.7900390625Q57.43359375 -4.494140625 54.93896484375 -9.23583984375Q52.4443359375 -13.9775390625 52.4443359375 -20.0712890625Q52.4443359375 -26.203125 54.97705078125 -30.9638671875Q57.509765625 -35.724609375 61.9658203125 -38.4287109375Q66.421875 -41.1328125 72.1728515625 -41.1328125Q78.1142578125 -41.1328125 82.55126953125 -38.48583984375Q86.98828125 -35.8388671875 89.48291015625 -31.13525390625Q91.9775390625 -26.431640625 91.9775390625 -20.2998046875V-17.291015625H63.375Q63.52734375 -12.8349609375 66.0029296875 -10.1689453125Q68.478515625 -7.5029296875 72.896484375 -7.5029296875Q76.171875 -7.5029296875 78.36181640625 -8.912109375Q80.5517578125 -10.3212890625 81.3134765625 -12.64453125H91.55859375Q90.8349609375 -8.6455078125 88.1689453125 -5.5986328125Q85.5029296875 -2.5517578125 81.4658203125 -0.81884765625Q77.4287109375 0.9140625 72.5537109375 0.9140625ZM63.451171875 -24.451171875H81.3896484375Q80.970703125 -28.2216796875 78.59033203125 -30.41162109375Q76.2099609375 -32.6015625 72.4013671875 -32.6015625Q68.630859375 -32.6015625 66.26953125 -30.41162109375Q63.908203125 -28.2216796875 63.451171875 -24.451171875ZM116.5048828125 16.453125Q107.935546875 16.453125 103.2509765625 12.873046875Q98.56640625 9.29296875 97.728515625 3.427734375H108.544921875Q109.154296875 5.712890625 111.2490234375 6.95068359375Q113.34375 8.1884765625 116.5048828125 8.1884765625Q120.6181640625 8.1884765625 122.84619140625 5.94140625Q125.07421875 3.6943359375 125.07421875 -0.6474609375V-6.8173828125H125.0361328125Q123.24609375 -3.275390625 120.18017578125 -1.61865234375Q117.1142578125 0.0380859375 113.1533203125 0.0380859375Q107.8974609375 0.0380859375 103.974609375 -2.58984375Q100.0517578125 -5.2177734375 97.89990234375 -9.80712890625Q95.748046875 -14.396484375 95.748046875 -20.4140625Q95.748046875 -26.4697265625 97.93798828125 -31.1162109375Q100.1279296875 -35.7626953125 104.03173828125 -38.40966796875Q107.935546875 -41.056640625 113.0771484375 -41.056640625Q116.9619140625 -41.056640625 120.02783203125 -39.39990234375Q123.09375 -37.7431640625 125.0361328125 -34.3916015625H125.07421875V-40.21875H136.1572265625V-1.5615234375Q136.1572265625 4.798828125 133.66259765625 8.77880859375Q131.16796875 12.7587890625 126.75 14.60595703125Q122.33203125 16.453125 116.5048828125 16.453125ZM116.0478515625 -8.9501953125Q120.3134765625 -8.9501953125 122.9033203125 -12.111328125Q125.4931640625 -15.2724609375 125.4931640625 -20.56640625Q125.4931640625 -25.822265625 122.9033203125 -28.9833984375Q120.3134765625 -32.14453125 116.0478515625 -32.14453125Q111.97265625 -32.14453125 109.51611328125 -29.11669921875Q107.0595703125 -26.0888671875 107.0595703125 -20.56640625Q107.0595703125 -15.005859375 109.51611328125 -11.97802734375Q111.97265625 -8.9501953125 116.0478515625 -8.9501953125ZM161.9794921875 0.9140625Q155.8857421875 0.9140625 151.37255859375 -1.7900390625Q146.859375 -4.494140625 144.36474609375 -9.23583984375Q141.8701171875 -13.9775390625 141.8701171875 -20.0712890625Q141.8701171875 -26.203125 144.40283203125 -30.9638671875Q146.935546875 -35.724609375 151.3916015625 -38.4287109375Q155.84765625 -41.1328125 161.5986328125 -41.1328125Q167.5400390625 -41.1328125 171.97705078125 -38.48583984375Q176.4140625 -35.8388671875 178.90869140625 -31.13525390625Q181.4033203125 -26.431640625 181.4033203125 -20.2998046875V-17.291015625H152.80078125Q152.953125 -12.8349609375 155.4287109375 -10.1689453125Q157.904296875 -7.5029296875 162.322265625 -7.5029296875Q165.59765625 -7.5029296875 167.78759765625 -8.912109375Q169.9775390625 -10.3212890625 170.7392578125 -12.64453125H180.984375Q180.2607421875 -8.6455078125 177.5947265625 -5.5986328125Q174.9287109375 -2.5517578125 170.8916015625 -0.81884765625Q166.8544921875 0.9140625 161.9794921875 0.9140625ZM152.876953125 -24.451171875H170.8154296875Q170.396484375 -28.2216796875 168.01611328125 -30.41162109375Q165.6357421875 -32.6015625 161.8271484375 -32.6015625Q158.056640625 -32.6015625 155.6953125 -30.41162109375Q153.333984375 -28.2216796875 152.876953125 -24.451171875ZM183.421875 0.0 197.818359375 -20.490234375 184.412109375 -40.21875H196.67578125L200.2177734375 -34.58203125Q201.24609375 -32.830078125 202.1982421875 -31.1923828125Q203.150390625 -29.5546875 204.1025390625 -27.9169921875Q205.0546875 -29.5546875 206.02587890625 -31.1923828125Q206.9970703125 -32.830078125 208.0634765625 -34.58203125L211.681640625 -40.21875H223.7548828125L210.1962890625 -20.7568359375L224.40234375 0.0H212.1005859375L208.0634765625 -6.169921875Q206.958984375 -7.998046875 205.96875 -9.69287109375Q204.978515625 -11.3876953125 203.98828125 -13.0634765625Q202.9599609375 -11.3876953125 201.931640625 -9.69287109375Q200.9033203125 -7.998046875 199.798828125 -6.169921875L195.685546875 0.0Z" class="ink-f"/><path transform="translate(394.951171875 0)" d="M1.7138671875 -46.693359375V-56.748046875H47.8359375V-46.693359375H30.6591796875V0.0H18.9287109375V-46.693359375ZM71.677734375 0.9140625Q65.583984375 0.9140625 60.99462890625 -1.7138671875Q56.4052734375 -4.341796875 53.83447265625 -9.04541015625Q51.263671875 -13.7490234375 51.263671875 -20.0712890625Q51.263671875 -26.3935546875 53.83447265625 -31.1162109375Q56.4052734375 -35.8388671875 60.99462890625 -38.48583984375Q65.583984375 -41.1328125 71.677734375 -41.1328125Q77.8095703125 -41.1328125 82.39892578125 -38.48583984375Q86.98828125 -35.8388671875 89.55908203125 -31.1162109375Q92.1298828125 -26.3935546875 92.1298828125 -20.0712890625Q92.1298828125 -13.787109375 89.55908203125 -9.064453125Q86.98828125 -4.341796875 82.39892578125 -1.7138671875Q77.8095703125 0.9140625 71.677734375 0.9140625ZM71.677734375 -8.1884765625Q75.791015625 -8.1884765625 78.3046875 -11.33056640625Q80.818359375 -14.47265625 80.818359375 -20.0712890625Q80.818359375 -25.7080078125 78.3046875 -28.869140625Q75.791015625 -32.0302734375 71.677734375 -32.0302734375Q67.6025390625 -32.0302734375 65.0888671875 -28.869140625Q62.5751953125 -25.7080078125 62.5751953125 -20.0712890625Q62.5751953125 -14.47265625 65.0888671875 -11.33056640625Q67.6025390625 -8.1884765625 71.677734375 -8.1884765625ZM116.466796875 0.9140625Q110.373046875 0.9140625 105.78369140625 -1.7138671875Q101.1943359375 -4.341796875 98.62353515625 -9.04541015625Q96.052734375 -13.7490234375 96.052734375 -20.0712890625Q96.052734375 -26.3935546875 98.62353515625 -31.1162109375Q101.1943359375 -35.8388671875 105.78369140625 -38.48583984375Q110.373046875 -41.1328125 116.466796875 -41.1328125Q122.5986328125 -41.1328125 127.18798828125 -38.48583984375Q131.77734375 -35.8388671875 134.34814453125 -31.1162109375Q136.9189453125 -26.3935546875 136.9189453125 -20.0712890625Q136.9189453125 -13.787109375 134.34814453125 -9.064453125Q131.77734375 -4.341796875 127.18798828125 -1.7138671875Q122.5986328125 0.9140625 116.466796875 0.9140625ZM116.466796875 -8.1884765625Q120.580078125 -8.1884765625 123.09375 -11.33056640625Q125.607421875 -14.47265625 125.607421875 -20.0712890625Q125.607421875 -25.7080078125 123.09375 -28.869140625Q120.580078125 -32.0302734375 116.466796875 -32.0302734375Q112.3916015625 -32.0302734375 109.8779296875 -28.869140625Q107.3642578125 -25.7080078125 107.3642578125 -20.0712890625Q107.3642578125 -14.47265625 109.8779296875 -11.33056640625Q112.3916015625 -8.1884765625 116.466796875 -8.1884765625ZM153.8291015625 -56.748046875V0.0H142.59375V-56.748046875ZM161.255859375 0.0V-56.748046875H172.4912109375V-24.83203125H172.60546875L186.697265625 -40.21875H199.875L184.1455078125 -22.775390625L200.712890625 0.0H187.5732421875L175.728515625 -16.3388671875L172.4912109375 -12.7587890625V0.0ZM203.68359375 0.0V-40.21875H214.9189453125V0.0ZM209.2822265625 -45.2841796875Q206.501953125 -45.2841796875 204.673828125 -46.97900390625Q202.845703125 -48.673828125 202.845703125 -51.263671875Q202.845703125 -53.853515625 204.673828125 -55.54833984375Q206.501953125 -57.2431640625 209.2822265625 -57.2431640625Q212.0244140625 -57.2431640625 213.8525390625 -55.54833984375Q215.6806640625 -53.853515625 215.6806640625 -51.263671875Q215.6806640625 -48.673828125 213.8525390625 -46.97900390625Q212.0244140625 -45.2841796875 209.2822265625 -45.2841796875ZM245.4638671875 -40.21875V-31.4208984375H237.2373046875V-12.416015625Q237.2373046875 -10.359375 238.05615234375 -9.57861328125Q238.875 -8.7978515625 241.16015625 -8.7978515625H245.4638671875V0.0H238.9130859375Q232.2861328125 0.0 229.14404296875 -2.58984375Q226.001953125 -5.1796875 226.001953125 -10.6640625V-31.4208984375H219.0703125V-40.21875H226.001953125V-51.1875H237.2373046875V-40.21875Z" class="amber-f"/></g>
</svg>
